<svg width="30" height="30" viewBox="0 0 30 30" fill="none" xmlns="http://www.w3.org/2000/svg">
<path d="M16.2312 22.705L16.2309 22.7053C15.7647 23.2246 15.1693 23.5047 14.5565 23.5047H14.5556C13.9457 23.5047 13.3531 23.2247 12.8877 22.7063C12.5931 22.3776 12.0889 22.351 11.7612 22.6466C11.4337 22.9403 11.4071 23.4453 11.7016 23.7719C12.4678 24.6257 13.4811 25.099 14.5545 25.1H14.5546H14.5565C15.6327 25.1 16.6478 24.6267 17.4168 23.773C17.7116 23.4463 17.6848 22.9411 17.3573 22.6466C17.0305 22.3518 16.5266 22.3788 16.2312 22.705ZM23.3062 17.0746L23.3065 17.0747V17.066C23.3065 15.5653 22.8275 14.7667 22.4113 14.075C22.2023 13.7267 22.0048 13.3972 21.8581 12.9643C21.7116 12.5321 21.6144 11.9926 21.6144 11.2279C21.6144 8.16287 18.7896 4.9 14.6019 4.9C10.4142 4.9 7.58933 8.16287 7.58933 11.2279C7.58933 12.5721 7.2893 13.2261 6.93778 13.8304C6.9377 13.8305 6.93762 13.8306 6.93754 13.8308L6.79248 14.075C6.79242 14.075 6.79237 14.0751 6.79232 14.0752C6.37576 14.7676 5.89719 15.566 5.90001 17.1258L5.89965 17.1258L5.90039 17.1342C5.98222 18.079 6.29519 18.8137 6.79255 19.3815C7.28895 19.9481 7.96323 20.3419 8.75756 20.6156C10.3423 21.1617 12.4289 21.2377 14.6019 21.2377C16.7748 21.2377 18.8614 21.1617 20.4466 20.608C21.2412 20.3304 21.9157 19.931 22.4125 19.3558C22.9101 18.7797 23.2234 18.0339 23.3062 17.0746ZM9.18468 11.2279C9.18468 9.00251 11.4009 6.49535 14.6019 6.49535C17.8029 6.49535 20.0191 9.00251 20.0191 11.2279C20.0191 12.2046 20.1547 12.9227 20.3522 13.4982C20.5494 14.0729 20.8072 14.5015 21.0443 14.8958L21.0445 14.8961C21.2355 15.2141 21.4007 15.4897 21.52 15.8122C21.6382 16.1319 21.7122 16.5007 21.714 17.0014C21.6759 17.4329 21.5754 17.8063 21.3631 18.1263C21.1506 18.4468 20.8204 18.7224 20.3085 18.9477C19.2786 19.4009 17.533 19.6423 14.6019 19.6423C11.6541 19.6423 9.90927 19.4111 8.88406 18.9702C8.3746 18.7512 8.04813 18.4824 7.83863 18.1688C7.62936 17.8555 7.53084 17.4886 7.49258 17.0616C7.49299 16.5301 7.56654 16.146 7.68445 15.819C7.8033 15.4894 7.96835 15.214 8.15924 14.8961L8.15943 14.8958C8.39656 14.5015 8.65437 14.0729 8.85159 13.4982C9.04907 12.9227 9.18468 12.2046 9.18468 11.2279Z" fill="#EE571C" stroke="#EE571C" stroke-width="0.2"/>
</svg>
