<svg width="22" height="22" viewBox="0 0 22 22" fill="none" xmlns="http://www.w3.org/2000/svg">
<path d="M11 15.333C12.795 15.333 14.25 13.878 14.25 12.083C14.25 10.288 12.795 8.83301 11 8.83301C9.20503 8.83301 7.75 10.288 7.75 12.083C7.75 13.878 9.20503 15.333 11 15.333Z" stroke="#BDBDBD" stroke-width="1.5" stroke-linecap="round" stroke-linejoin="round"/>
<path d="M1.25 16.1997V7.96634C1.25 6.7529 1.25 6.14617 1.48616 5.6827C1.69387 5.27501 2.02533 4.94355 2.43302 4.73583C2.89649 4.49967 3.50322 4.49967 4.71667 4.49967H5.85919C5.99238 4.49967 6.05897 4.49967 6.12041 4.49263C6.44097 4.45592 6.72847 4.27823 6.90466 4.00794C6.93843 3.95613 6.96822 3.89656 7.02777 3.77745C7.1469 3.53921 7.20646 3.42009 7.27401 3.31648C7.62639 2.7759 8.2014 2.42052 8.84254 2.34708C8.96539 2.33301 9.09853 2.33301 9.36493 2.33301H12.6351C12.9015 2.33301 13.0346 2.33301 13.1575 2.34708C13.7986 2.42052 14.3736 2.7759 14.726 3.31648C14.7935 3.42008 14.8531 3.53925 14.9723 3.77745C15.0317 3.89657 15.0615 3.95613 15.0953 4.00794C15.2716 4.27823 15.559 4.45592 15.8796 4.49263C15.9411 4.49967 16.0076 4.49967 16.1408 4.49967H17.2833C18.4968 4.49967 19.1036 4.49967 19.567 4.73583C19.9747 4.94355 20.3062 5.27501 20.5138 5.6827C20.75 6.14617 20.75 6.7529 20.75 7.96634V16.1997C20.75 17.4131 20.75 18.0199 20.5138 18.4833C20.3062 18.891 19.9747 19.2225 19.567 19.4302C19.1036 19.6663 18.4968 19.6663 17.2833 19.6663H4.71667C3.50322 19.6663 2.89649 19.6663 2.43302 19.4302C2.02533 19.2225 1.69387 18.891 1.48616 18.4833C1.25 18.0199 1.25 17.4131 1.25 16.1997Z" stroke="#BDBDBD" stroke-width="1.5" stroke-linecap="round" stroke-linejoin="round"/>
</svg>
