<svg width="12" height="12" viewBox="0 0 12 12" fill="none" xmlns="http://www.w3.org/2000/svg">
<path d="M2.83321 2.11111H11L9.88889 6H3.43151M10.4444 8.22222H3.77778L2.66667 1H1M4.33333 10.4444C4.33333 10.7513 4.0846 11 3.77778 11C3.47096 11 3.22222 10.7513 3.22222 10.4444C3.22222 10.1376 3.47096 9.88889 3.77778 9.88889C4.0846 9.88889 4.33333 10.1376 4.33333 10.4444ZM10.4444 10.4444C10.4444 10.7513 10.1957 11 9.88889 11C9.58206 11 9.33333 10.7513 9.33333 10.4444C9.33333 10.1376 9.58206 9.88889 9.88889 9.88889C10.1957 9.88889 10.4444 10.1376 10.4444 10.4444Z" stroke="#313232" stroke-width="0.8" stroke-linecap="round" stroke-linejoin="round"/>
</svg>
