<svg width="30" height="30" viewBox="0 0 30 30" fill="none" xmlns="http://www.w3.org/2000/svg">
<path d="M21.5312 6.75H8.46875C7.83113 6.75181 7.22014 7.00591 6.76928 7.45678C6.31841 7.90764 6.06431 8.51863 6.0625 9.15625V17.4062C6.06431 18.0439 6.31841 18.6549 6.76928 19.1057C7.22014 19.5566 7.83113 19.8107 8.46875 19.8125H10.1875V23.25L14.2145 19.8924C14.2764 19.8408 14.3544 19.8125 14.435 19.8125H21.5312C22.1689 19.8107 22.7799 19.5566 23.2307 19.1057C23.6816 18.6549 23.9357 18.0439 23.9375 17.4062V9.15625C23.9357 8.51863 23.6816 7.90764 23.2307 7.45678C22.7799 7.00591 22.1689 6.75181 21.5312 6.75Z" stroke="#EE571C" stroke-width="2" stroke-linejoin="round"/>
<path d="M11.75 13.2812C11.75 13.7645 11.3582 14.1562 10.875 14.1562C10.3918 14.1562 10 13.7645 10 13.2812C10 12.798 10.3918 12.4062 10.875 12.4062C11.3582 12.4062 11.75 12.798 11.75 13.2812Z" fill="#EE571C" stroke="#EE571C"/>
<path d="M15.875 13.2812C15.875 13.7645 15.4832 14.1562 15 14.1562C14.5168 14.1562 14.125 13.7645 14.125 13.2812C14.125 12.798 14.5168 12.4062 15 12.4062C15.4832 12.4062 15.875 12.798 15.875 13.2812Z" fill="#EE571C" stroke="#EE571C"/>
<path d="M20 13.2812C20 13.7645 19.6082 14.1562 19.125 14.1562C18.6418 14.1562 18.25 13.7645 18.25 13.2812C18.25 12.798 18.6418 12.4062 19.125 12.4062C19.6082 12.4062 20 12.798 20 13.2812Z" fill="#EE571C" stroke="#EE571C"/>
</svg>
