<svg width="24" height="24" viewBox="0 0 24 24" fill="none" xmlns="http://www.w3.org/2000/svg">
<path d="M20.2509 21.0001C20.1524 21.0003 20.0549 20.9809 19.9639 20.9432C19.8729 20.9054 19.7903 20.8501 19.7208 20.7803L3.22078 4.28025C3.08606 4.13845 3.01207 3.94964 3.01457 3.75407C3.01708 3.5585 3.09588 3.37164 3.23418 3.23334C3.37248 3.09504 3.55934 3.01624 3.75491 3.01373C3.95048 3.01123 4.13929 3.08522 4.28109 3.21994L20.7811 19.7199C20.8859 19.8248 20.9573 19.9584 20.9862 20.1039C21.0151 20.2493 21.0003 20.4001 20.9435 20.5371C20.8868 20.6741 20.7907 20.7912 20.6674 20.8736C20.5442 20.956 20.3992 21 20.2509 21.0001ZM11.985 18.0001C10.0402 18.0001 8.16469 17.4245 6.41062 16.2892C4.81359 15.2579 3.37593 13.7809 2.25281 12.0235V12.0198C3.1875 10.6806 4.21125 9.54806 5.31094 8.63494C5.32088 8.62662 5.329 8.61633 5.33477 8.60472C5.34053 8.59311 5.34383 8.58042 5.34445 8.56747C5.34506 8.55452 5.34299 8.54158 5.33835 8.52947C5.33371 8.51736 5.32661 8.50635 5.3175 8.49713L4.38375 7.56478C4.36715 7.54805 4.34487 7.53818 4.32133 7.53714C4.29779 7.5361 4.27472 7.54396 4.25672 7.55916C3.08859 8.54353 2.00437 9.75103 1.01859 11.1648C0.84899 11.4082 0.755584 11.6966 0.750243 11.9932C0.744901 12.2898 0.827865 12.5813 0.988591 12.8307C2.22656 14.7681 3.81984 16.3998 5.59547 17.5487C7.59468 18.8438 9.74625 19.5001 11.985 19.5001C13.1934 19.4963 14.3933 19.2972 15.5381 18.9104C15.5532 18.9053 15.5668 18.8964 15.5775 18.8846C15.5882 18.8728 15.5957 18.8584 15.5993 18.8429C15.6029 18.8273 15.6025 18.8111 15.5981 18.7958C15.5937 18.7805 15.5855 18.7665 15.5742 18.7553L14.5627 17.7437C14.5394 17.721 14.5106 17.7047 14.4791 17.6965C14.4476 17.6883 14.4145 17.6884 14.3831 17.6968C13.5997 17.8985 12.794 18.0004 11.985 18.0001ZM23.0091 11.1845C21.7687 9.26634 20.1595 7.63697 18.3558 6.47213C16.3603 5.18213 14.1572 4.50009 11.985 4.50009C10.7894 4.50222 9.60266 4.70552 8.47453 5.1015C8.4595 5.10673 8.44605 5.1157 8.43544 5.12757C8.42483 5.13943 8.41742 5.1538 8.41391 5.16933C8.41039 5.18485 8.41088 5.20101 8.41534 5.21629C8.41979 5.23157 8.42806 5.24546 8.43937 5.25666L9.44953 6.26681C9.47305 6.28993 9.50224 6.30644 9.53417 6.31467C9.56611 6.3229 9.59964 6.32256 9.6314 6.31369C10.3987 6.10612 11.1901 6.00067 11.985 6.00009C13.8923 6.00009 15.7622 6.58275 17.542 7.73447C19.1691 8.78447 20.6236 10.2601 21.7495 12.0001C21.7504 12.0012 21.7508 12.0025 21.7508 12.0038C21.7508 12.0052 21.7504 12.0065 21.7495 12.0076C20.9322 13.2943 19.918 14.4447 18.7439 15.4168C18.7339 15.4251 18.7256 15.4354 18.7198 15.447C18.7139 15.4587 18.7106 15.4714 18.7099 15.4844C18.7092 15.4974 18.7113 15.5104 18.7159 15.5226C18.7206 15.5348 18.7277 15.5458 18.7369 15.5551L19.6697 16.4874C19.6862 16.5041 19.7084 16.514 19.7318 16.5151C19.7552 16.5162 19.7782 16.5085 19.7962 16.4935C21.0497 15.4381 22.1347 14.1976 23.0137 12.8148C23.1691 12.5711 23.2513 12.2879 23.2505 11.9989C23.2496 11.7099 23.1658 11.4273 23.0091 11.1845Z" fill="#828282"/>
<path d="M12.0009 7.5C11.6639 7.49982 11.3279 7.53756 10.9992 7.6125C10.9826 7.61595 10.9673 7.62383 10.9548 7.63531C10.9423 7.64679 10.9332 7.66144 10.9284 7.6777C10.9236 7.69395 10.9233 7.71121 10.9275 7.72763C10.9317 7.74405 10.9403 7.75901 10.9524 7.77094L16.23 13.0472C16.2419 13.0592 16.2569 13.0678 16.2733 13.0721C16.2897 13.0763 16.307 13.076 16.3233 13.0712C16.3395 13.0663 16.3542 13.0572 16.3656 13.0447C16.3771 13.0323 16.385 13.0169 16.3884 13.0003C16.5387 12.3413 16.5386 11.6568 16.388 10.9979C16.2375 10.3389 15.9404 9.72228 15.5189 9.19385C15.0974 8.66542 14.5623 8.23874 13.9532 7.9455C13.3442 7.65226 12.6769 7.49999 12.0009 7.5ZM7.77189 10.9528C7.75996 10.9408 7.745 10.9322 7.72858 10.9279C7.71216 10.9237 7.6949 10.924 7.67864 10.9289C7.66239 10.9337 7.64774 10.9428 7.63626 10.9553C7.62478 10.9677 7.61689 10.9831 7.61345 10.9997C7.44345 11.7424 7.4648 12.516 7.67549 13.2482C7.88617 13.9803 8.2793 14.647 8.81802 15.1857C9.35674 15.7245 10.0234 16.1176 10.7556 16.3283C11.4877 16.539 12.2614 16.5603 13.0041 16.3903C13.0207 16.3869 13.036 16.379 13.0485 16.3675C13.061 16.356 13.0701 16.3414 13.0749 16.3251C13.0797 16.3089 13.08 16.2916 13.0758 16.2752C13.0716 16.2588 13.063 16.2438 13.0509 16.2319L7.77189 10.9528Z" fill="#828282"/>
</svg>
