<svg width="24" height="24" viewBox="0 0 24 24" fill="none" xmlns="http://www.w3.org/2000/svg">
<path fill-rule="evenodd" clip-rule="evenodd" d="M13.352 15.6264C14.4158 15.6264 15.2816 16.486 15.2816 17.5427V20.2604C15.2816 20.4874 15.4636 20.6694 15.6969 20.6747H17.3808C18.7078 20.6747 19.7866 19.6092 19.7866 18.2999V10.5922C19.7804 10.1416 19.5657 9.71751 19.1973 9.43567L13.3724 4.7902C12.5904 4.17087 11.4967 4.17087 10.7121 4.79197L4.92692 9.43391C4.54437 9.72458 4.32968 10.1487 4.32526 10.6072V18.2999C4.32526 19.6092 5.40402 20.6747 6.73104 20.6747H8.43091C8.67034 20.6747 8.86471 20.4848 8.86471 20.2515C8.86471 20.2003 8.87089 20.1491 8.88149 20.1005V17.5427C8.88149 16.4922 9.74203 15.6335 10.7978 15.6264H13.352ZM17.3808 22H15.6809C14.7073 21.977 13.9563 21.2128 13.9563 20.2604V17.5427C13.9563 17.2167 13.6851 16.9517 13.352 16.9517H10.8022C10.4762 16.9534 10.2068 17.2194 10.2068 17.5427V20.2515C10.2068 20.3178 10.1979 20.3814 10.1794 20.4415C10.0839 21.3162 9.3365 22 8.43091 22H6.73104C4.67336 22 3 20.3399 3 18.2999V10.601C3.00884 9.72281 3.41348 8.91882 4.11233 8.3896L9.88604 3.75562C11.1574 2.74842 12.9288 2.74842 14.1975 3.75385L20.0128 8.39225C20.6957 8.91264 21.1004 9.71486 21.1119 10.5825V18.2999C21.1119 20.3399 19.4385 22 17.3808 22Z" fill="#EE571C" stroke="#EE571C" stroke-width="0.4"/>
</svg>
