<svg width="24" height="24" viewBox="0 0 24 24" fill="none" xmlns="http://www.w3.org/2000/svg">
<path fill-rule="evenodd" clip-rule="evenodd" d="M12.1629 14.3268L12.2712 14.3268L12.5112 14.3275C14.5499 14.3384 19.3258 14.5237 19.3258 17.6741C19.3258 20.595 15.4034 20.9853 12.3524 21L11.8146 20.9998C9.77586 20.9889 5 20.8036 5 17.6541C5 14.6714 9.0875 14.3268 12.1629 14.3268ZM12.1629 15.6908C8.31547 15.6908 6.36401 16.3519 6.36401 17.6541C6.36401 18.969 8.31547 19.6364 12.1629 19.6364C16.0103 19.6364 17.9618 18.9753 17.9618 17.6741C17.9618 16.3573 16.0103 15.6908 12.1629 15.6908ZM12.1629 3C14.83 3 16.9988 5.16969 16.9988 7.83589C16.9988 10.5021 14.83 12.6718 12.1629 12.6718H12.1347C10.8443 12.6672 9.63492 12.1607 8.72831 11.2477C7.82078 10.3339 7.32337 9.12079 7.32789 7.83316C7.32789 5.16969 9.4967 3 12.1629 3ZM12.1629 4.36401C10.2496 4.36401 8.69191 5.92172 8.69191 7.83589C8.6883 8.76251 9.04476 9.63093 9.69494 10.2866C10.346 10.9413 11.2135 11.3041 12.1374 11.3078L12.1629 11.9816V11.3078C14.0771 11.3078 15.6348 9.75006 15.6348 7.83589C15.6348 5.92172 14.0771 4.36401 12.1629 4.36401Z" fill="#7B7D7E" stroke="#7B7D7E" stroke-width="0.1"/>
</svg>
