<svg width="22" height="22" viewBox="0 0 22 22" fill="none" xmlns="http://www.w3.org/2000/svg">
<path fill-rule="evenodd" clip-rule="evenodd" d="M4.58203 7.33333C4.58203 7.57645 4.48545 7.80961 4.31355 7.98151C4.14164 8.15342 3.90848 8.25 3.66536 8.25C3.42225 8.25 3.18909 8.15342 3.01718 7.98151C2.84527 7.80961 2.7487 7.57645 2.7487 7.33333V5.42942C2.7487 4.73275 2.82386 4.34317 3.04111 3.938C3.24553 3.55392 3.55261 3.24683 3.9367 3.04242C4.34186 2.82517 4.73053 2.75 5.42811 2.75H7.33203C7.57515 2.75 7.8083 2.84658 7.98021 3.01849C8.15212 3.19039 8.2487 3.42355 8.2487 3.66667C8.2487 3.90978 8.15212 4.14294 7.98021 4.31485C7.8083 4.48676 7.57515 4.58333 7.33203 4.58333H5.42811C5.00736 4.58333 4.90561 4.6035 4.80111 4.6585C4.73932 4.69031 4.68901 4.74063 4.6572 4.80242C4.6022 4.906 4.58203 5.00867 4.58203 5.42942V7.33333ZM7.33203 17.4167C7.57515 17.4167 7.8083 17.5132 7.98021 17.6852C8.15212 17.8571 8.2487 18.0902 8.2487 18.3333C8.2487 18.5764 8.15212 18.8096 7.98021 18.9815C7.8083 19.1534 7.57515 19.25 7.33203 19.25H5.42811C4.73145 19.25 4.34186 19.1748 3.9367 18.9576C3.55561 18.7549 3.24375 18.4431 3.04111 18.062C2.82386 17.6568 2.7487 17.2682 2.7487 16.5706V14.6667C2.7487 14.4236 2.84527 14.1904 3.01718 14.0185C3.18909 13.8466 3.42225 13.75 3.66536 13.75C3.90848 13.75 4.14164 13.8466 4.31355 14.0185C4.48545 14.1904 4.58203 14.4236 4.58203 14.6667V16.5706C4.58203 16.9913 4.6022 17.0931 4.6572 17.1976C4.69203 17.2618 4.73695 17.3076 4.80111 17.3415C4.9047 17.3965 5.00736 17.4167 5.42811 17.4167H7.33203ZM13.7487 3.66667C13.7487 3.90978 13.8453 4.14294 14.0172 4.31485C14.1891 4.48676 14.4222 4.58333 14.6654 4.58333H16.5693C16.99 4.58333 17.0918 4.6035 17.1963 4.6585C17.2604 4.69333 17.3063 4.73825 17.3402 4.80242C17.3952 4.906 17.4154 5.00867 17.4154 5.42942V7.33333C17.4154 7.57645 17.5119 7.80961 17.6838 7.98151C17.8558 8.15342 18.0889 8.25 18.332 8.25C18.5751 8.25 18.8083 8.15342 18.9802 7.98151C19.1521 7.80961 19.2487 7.57645 19.2487 7.33333V5.42942C19.2487 4.73275 19.1735 4.34317 18.9563 3.938C18.7536 3.55691 18.4418 3.24505 18.0607 3.04242C17.6555 2.82517 17.2669 2.75 16.5693 2.75H14.6654C14.4222 2.75 14.1891 2.84658 14.0172 3.01849C13.8453 3.19039 13.7487 3.42355 13.7487 3.66667ZM17.4154 14.6667C17.4154 14.4236 17.5119 14.1904 17.6838 14.0185C17.8558 13.8466 18.0889 13.75 18.332 13.75C18.5751 13.75 18.8083 13.8466 18.9802 14.0185C19.1521 14.1904 19.2487 14.4236 19.2487 14.6667V16.5706C19.2487 17.2673 19.1735 17.6568 18.9563 18.062C18.7536 18.4431 18.4418 18.7549 18.0607 18.9576C17.6555 19.1748 17.2669 19.25 16.5693 19.25H14.6654C14.4222 19.25 14.1891 19.1534 14.0172 18.9815C13.8453 18.8096 13.7487 18.5764 13.7487 18.3333C13.7487 18.0902 13.8453 17.8571 14.0172 17.6852C14.1891 17.5132 14.4222 17.4167 14.6654 17.4167H16.5693C16.99 17.4167 17.0918 17.3965 17.1963 17.3415C17.2581 17.3097 17.3084 17.2594 17.3402 17.1976C17.3952 17.094 17.4154 16.9913 17.4154 16.5706V14.6667ZM2.7487 10.0833C2.50558 10.0833 2.27242 10.1799 2.10052 10.3518C1.92861 10.5237 1.83203 10.7569 1.83203 11C1.83203 11.2431 1.92861 11.4763 2.10052 11.6482C2.27242 11.8201 2.50558 11.9167 2.7487 11.9167H19.2487C19.4918 11.9167 19.725 11.8201 19.8969 11.6482C20.0688 11.4763 20.1654 11.2431 20.1654 11C20.1654 10.7569 20.0688 10.5237 19.8969 10.3518C19.725 10.1799 19.4918 10.0833 19.2487 10.0833H2.7487Z" fill="#BDBDBD"/>
</svg>
